<svg width="340" height="36" viewBox="0 0 340 36" fill="none" xmlns="http://www.w3.org/2000/svg">
<mask id="path-1-outside-1_2_77" maskUnits="userSpaceOnUse" x="-2" y="-2" width="344" height="40" fill="black">
<rect fill="white" x="-2" y="-2" width="344" height="40"/>
<path d="M12 24H16V28H12H8H4V24H8H12ZM4 24H0V20V16V12H4V16V20V24ZM12 8H16V12H12H8H4V8H8H12ZM36 28V24H32V28H28H24V24H28H32V20H36V16V12V8H40V12V16V20V24V28H36ZM24 24H20V20V16V12V8H24V12V16V20V24ZM48 28V24H52V28H48ZM48 24H44V20V16V12V8V4V0H48V4V8V12V16V20V24ZM68 24H72V28H68H64V24H68ZM64 24H60V20V16V12H56V8H60V4V0H64V4V8H68H72V12H68H64V16V20V24ZM88 24H92V28H88H84H80V24H84H88ZM80 24H76V20V16V12H80V16H84H88H92V12H96V16V20H92H88H84H80V24ZM92 12H88H84H80V8H84H88H92V12ZM136 28H132H128H124V24H120V20V16V12H124V8H128H132H136V4V0H140V4V8V12V16V20V24V28H136ZM132 24H136V20V16V12H132H128H124V16V20V24H128H132ZM160 28V24H156V28H152H148V24H152H156V20H160V16V12V8H164V12V16V20V24V28H160ZM148 24H144V20V16V12V8H148V12V16V20V24ZM188 36V32V28V24V20V16V12V8H192H196H200H204V12H208V16V20V24H204V20V16V12H200H196H192V16V20V24H196H200H204V28H200H196H192V32V36H188ZM224 24H228V28H224H220H216V24H220H224ZM228 24V20V16V12H232V16V20V24H228ZM216 24H212V20V16V12H216V16V20V24ZM228 12H224H220H216V8H220H224H228V12ZM240 28V24V20V16V12H236V8H240H244V12V16V20V24V28H240ZM240 4V0H244V4H240ZM260 24H264V28H260H256H252H248V24H252H256H260ZM264 24V20H268V24H264ZM264 20H260H256H252V16H256H260H264V20ZM252 16H248V12H252V16ZM264 8H268V12H264H260H256H252V8H256H260H264ZM284 24H288V28H284H280H276H272V24H276H280H284ZM288 24V20H292V24H288ZM288 20H284H280H276V16H280H284H288V20ZM276 16H272V12H276V16ZM288 8H292V12H288H284H280H276V8H280H284H288ZM308 24H312V28H308H304H300V24H304H308ZM312 24V20V16V12H316V16V20V24H312ZM300 24H296V20V16V12H300V16V20V24ZM312 12H308H304H300V8H304H308H312V12ZM336 28V24V20V16V12H340V16V20V24V28H336ZM320 28V24V20V16V12V8H324V12H328V16H324V20V24V28H320ZM336 12H332H328V8H332H336V12Z"/>
</mask>
<path d="M12 24H16V28H12H8H4V24H8H12ZM4 24H0V20V16V12H4V16V20V24ZM12 8H16V12H12H8H4V8H8H12ZM36 28V24H32V28H28H24V24H28H32V20H36V16V12V8H40V12V16V20V24V28H36ZM24 24H20V20V16V12V8H24V12V16V20V24ZM48 28V24H52V28H48ZM48 24H44V20V16V12V8V4V0H48V4V8V12V16V20V24ZM68 24H72V28H68H64V24H68ZM64 24H60V20V16V12H56V8H60V4V0H64V4V8H68H72V12H68H64V16V20V24ZM88 24H92V28H88H84H80V24H84H88ZM80 24H76V20V16V12H80V16H84H88H92V12H96V16V20H92H88H84H80V24ZM92 12H88H84H80V8H84H88H92V12ZM136 28H132H128H124V24H120V20V16V12H124V8H128H132H136V4V0H140V4V8V12V16V20V24V28H136ZM132 24H136V20V16V12H132H128H124V16V20V24H128H132ZM160 28V24H156V28H152H148V24H152H156V20H160V16V12V8H164V12V16V20V24V28H160ZM148 24H144V20V16V12V8H148V12V16V20V24ZM188 36V32V28V24V20V16V12V8H192H196H200H204V12H208V16V20V24H204V20V16V12H200H196H192V16V20V24H196H200H204V28H200H196H192V32V36H188ZM224 24H228V28H224H220H216V24H220H224ZM228 24V20V16V12H232V16V20V24H228ZM216 24H212V20V16V12H216V16V20V24ZM228 12H224H220H216V8H220H224H228V12ZM240 28V24V20V16V12H236V8H240H244V12V16V20V24V28H240ZM240 4V0H244V4H240ZM260 24H264V28H260H256H252H248V24H252H256H260ZM264 24V20H268V24H264ZM264 20H260H256H252V16H256H260H264V20ZM252 16H248V12H252V16ZM264 8H268V12H264H260H256H252V8H256H260H264ZM284 24H288V28H284H280H276H272V24H276H280H284ZM288 24V20H292V24H288ZM288 20H284H280H276V16H280H284H288V20ZM276 16H272V12H276V16ZM288 8H292V12H288H284H280H276V8H280H284H288ZM308 24H312V28H308H304H300V24H304H308ZM312 24V20V16V12H316V16V20V24H312ZM300 24H296V20V16V12H300V16V20V24ZM312 12H308H304H300V8H304H308H312V12ZM336 28V24V20V16V12H340V16V20V24V28H336ZM320 28V24V20V16V12V8H324V12H328V16H324V20V24V28H320ZM336 12H332H328V8H332H336V12Z" fill="white"/>
<path d="M16 24H18V22H16V24ZM16 28V30H18V28H16ZM4 28H2V30H4V28ZM4 24V22H2V24H4ZM4 24V26H6V24H4ZM0 24H-2V26H0V24ZM0 12V10H-2V12H0ZM4 12H6V10H4V12ZM16 8H18V6H16V8ZM16 12V14H18V12H16ZM4 12H2V14H4V12ZM4 8V6H2V8H4ZM12 26H16V22H12V26ZM14 24V28H18V24H14ZM16 26H12V30H16V26ZM12 26H8V30H12V26ZM8 26H4V30H8V26ZM6 28V24H2V28H6ZM4 26H8V22H4V26ZM8 26H12V22H8V26ZM4 22H0V26H4V22ZM2 24V20H-2V24H2ZM2 20V16H-2V20H2ZM2 16V12H-2V16H2ZM0 14H4V10H0V14ZM2 12V16H6V12H2ZM2 16V20H6V16H2ZM2 20V24H6V20H2ZM12 10H16V6H12V10ZM14 8V12H18V8H14ZM16 10H12V14H16V10ZM12 10H8V14H12V10ZM8 10H4V14H8V10ZM6 12V8H2V12H6ZM4 10H8V6H4V10ZM8 10H12V6H8V10ZM36 28H34V30H36V28ZM36 24H38V22H36V24ZM32 24V22H30V24H32ZM32 28V30H34V28H32ZM24 28H22V30H24V28ZM24 24V22H22V24H24ZM32 24V26H34V24H32ZM32 20V18H30V20H32ZM36 20V22H38V20H36ZM36 8V6H34V8H36ZM40 8H42V6H40V8ZM40 28V30H42V28H40ZM24 24V26H26V24H24ZM20 24H18V26H20V24ZM20 8V6H18V8H20ZM24 8H26V6H24V8ZM38 28V24H34V28H38ZM36 22H32V26H36V22ZM30 24V28H34V24H30ZM32 26H28V30H32V26ZM28 26H24V30H28V26ZM26 28V24H22V28H26ZM24 26H28V22H24V26ZM28 26H32V22H28V26ZM34 24V20H30V24H34ZM32 22H36V18H32V22ZM38 20V16H34V20H38ZM38 16V12H34V16H38ZM38 12V8H34V12H38ZM36 10H40V6H36V10ZM38 8V12H42V8H38ZM38 12V16H42V12H38ZM38 16V20H42V16H38ZM38 20V24H42V20H38ZM38 24V28H42V24H38ZM40 26H36V30H40V26ZM24 22H20V26H24V22ZM22 24V20H18V24H22ZM22 20V16H18V20H22ZM22 16V12H18V16H22ZM22 12V8H18V12H22ZM20 10H24V6H20V10ZM22 8V12H26V8H22ZM22 12V16H26V12H22ZM22 16V20H26V16H22ZM22 20V24H26V20H22ZM48 28H46V30H48V28ZM48 24V22H46V24H48ZM52 24H54V22H52V24ZM52 28V30H54V28H52ZM48 24V26H50V24H48ZM44 24H42V26H44V24ZM44 0V-2H42V0H44ZM48 0H50V-2H48V0ZM50 28V24H46V28H50ZM48 26H52V22H48V26ZM50 24V28H54V24H50ZM52 26H48V30H52V26ZM48 22H44V26H48V22ZM46 24V20H42V24H46ZM46 20V16H42V20H46ZM46 16V12H42V16H46ZM46 12V8H42V12H46ZM46 8V4H42V8H46ZM46 4V0H42V4H46ZM44 2H48V-2H44V2ZM46 0V4H50V0H46ZM46 4V8H50V4H46ZM46 8V12H50V8H46ZM46 12V16H50V12H46ZM46 16V20H50V16H46ZM46 20V24H50V20H46ZM72 24H74V22H72V24ZM72 28V30H74V28H72ZM64 28H62V30H64V28ZM64 24V22H62V24H64ZM64 24V26H66V24H64ZM60 24H58V26H60V24ZM60 12H62V10H60V12ZM56 12H54V14H56V12ZM56 8V6H54V8H56ZM60 8V10H62V8H60ZM60 0V-2H58V0H60ZM64 0H66V-2H64V0ZM64 8H62V10H64V8ZM72 8H74V6H72V8ZM72 12V14H74V12H72ZM64 12V10H62V12H64ZM68 26H72V22H68V26ZM70 24V28H74V24H70ZM72 26H68V30H72V26ZM68 26H64V30H68V26ZM66 28V24H62V28H66ZM64 26H68V22H64V26ZM64 22H60V26H64V22ZM62 24V20H58V24H62ZM62 20V16H58V20H62ZM62 16V12H58V16H62ZM60 10H56V14H60V10ZM58 12V8H54V12H58ZM56 10H60V6H56V10ZM62 8V4H58V8H62ZM62 4V0H58V4H62ZM60 2H64V-2H60V2ZM62 0V4H66V0H62ZM62 4V8H66V4H62ZM64 10H68V6H64V10ZM68 10H72V6H68V10ZM70 8V12H74V8H70ZM72 10H68V14H72V10ZM68 10H64V14H68V10ZM62 12V16H66V12H62ZM62 16V20H66V16H62ZM62 20V24H66V20H62ZM92 24H94V22H92V24ZM92 28V30H94V28H92ZM80 28H78V30H80V28ZM80 24V22H78V24H80ZM80 24V26H82V24H80ZM76 24H74V26H76V24ZM76 12V10H74V12H76ZM80 12H82V10H80V12ZM80 16H78V18H80V16ZM92 16V18H94V16H92ZM92 12V10H90V12H92ZM96 12H98V10H96V12ZM96 20V22H98V20H96ZM80 20V18H78V20H80ZM92 12V14H94V12H92ZM80 12H78V14H80V12ZM80 8V6H78V8H80ZM92 8H94V6H92V8ZM88 26H92V22H88V26ZM90 24V28H94V24H90ZM92 26H88V30H92V26ZM88 26H84V30H88V26ZM84 26H80V30H84V26ZM82 28V24H78V28H82ZM80 26H84V22H80V26ZM84 26H88V22H84V26ZM80 22H76V26H80V22ZM78 24V20H74V24H78ZM78 20V16H74V20H78ZM78 16V12H74V16H78ZM76 14H80V10H76V14ZM78 12V16H82V12H78ZM80 18H84V14H80V18ZM84 18H88V14H84V18ZM88 18H92V14H88V18ZM94 16V12H90V16H94ZM92 14H96V10H92V14ZM94 12V16H98V12H94ZM94 16V20H98V16H94ZM96 18H92V22H96V18ZM92 18H88V22H92V18ZM88 18H84V22H88V18ZM84 18H80V22H84V18ZM78 20V24H82V20H78ZM92 10H88V14H92V10ZM88 10H84V14H88V10ZM84 10H80V14H84V10ZM82 12V8H78V12H82ZM80 10H84V6H80V10ZM84 10H88V6H84V10ZM88 10H92V6H88V10ZM90 8V12H94V8H90ZM124 28H122V30H124V28ZM124 24H126V22H124V24ZM120 24H118V26H120V24ZM120 12V10H118V12H120ZM124 12V14H126V12H124ZM124 8V6H122V8H124ZM136 8V10H138V8H136ZM136 0V-2H134V0H136ZM140 0H142V-2H140V0ZM140 28V30H142V28H140ZM136 24V26H138V24H136ZM136 12H138V10H136V12ZM124 12V10H122V12H124ZM124 24H122V26H124V24ZM136 26H132V30H136V26ZM132 26H128V30H132V26ZM128 26H124V30H128V26ZM126 28V24H122V28H126ZM124 22H120V26H124V22ZM122 24V20H118V24H122ZM122 20V16H118V20H122ZM122 16V12H118V16H122ZM120 14H124V10H120V14ZM126 12V8H122V12H126ZM124 10H128V6H124V10ZM128 10H132V6H128V10ZM132 10H136V6H132V10ZM138 8V4H134V8H138ZM138 4V0H134V4H138ZM136 2H140V-2H136V2ZM138 0V4H142V0H138ZM138 4V8H142V4H138ZM138 8V12H142V8H138ZM138 12V16H142V12H138ZM138 16V20H142V16H138ZM138 20V24H142V20H138ZM138 24V28H142V24H138ZM140 26H136V30H140V26ZM132 26H136V22H132V26ZM138 24V20H134V24H138ZM138 20V16H134V20H138ZM138 16V12H134V16H138ZM136 10H132V14H136V10ZM132 10H128V14H132V10ZM128 10H124V14H128V10ZM122 12V16H126V12H122ZM122 16V20H126V16H122ZM122 20V24H126V20H122ZM124 26H128V22H124V26ZM128 26H132V22H128V26ZM160 28H158V30H160V28ZM160 24H162V22H160V24ZM156 24V22H154V24H156ZM156 28V30H158V28H156ZM148 28H146V30H148V28ZM148 24V22H146V24H148ZM156 24V26H158V24H156ZM156 20V18H154V20H156ZM160 20V22H162V20H160ZM160 8V6H158V8H160ZM164 8H166V6H164V8ZM164 28V30H166V28H164ZM148 24V26H150V24H148ZM144 24H142V26H144V24ZM144 8V6H142V8H144ZM148 8H150V6H148V8ZM162 28V24H158V28H162ZM160 22H156V26H160V22ZM154 24V28H158V24H154ZM156 26H152V30H156V26ZM152 26H148V30H152V26ZM150 28V24H146V28H150ZM148 26H152V22H148V26ZM152 26H156V22H152V26ZM158 24V20H154V24H158ZM156 22H160V18H156V22ZM162 20V16H158V20H162ZM162 16V12H158V16H162ZM162 12V8H158V12H162ZM160 10H164V6H160V10ZM162 8V12H166V8H162ZM162 12V16H166V12H162ZM162 16V20H166V16H162ZM162 20V24H166V20H162ZM162 24V28H166V24H162ZM164 26H160V30H164V26ZM148 22H144V26H148V22ZM146 24V20H142V24H146ZM146 20V16H142V20H146ZM146 16V12H142V16H146ZM146 12V8H142V12H146ZM144 10H148V6H144V10ZM146 8V12H150V8H146ZM146 12V16H150V12H146ZM146 16V20H150V16H146ZM146 20V24H150V20H146ZM188 36H186V38H188V36ZM188 8V6H186V8H188ZM204 8H206V6H204V8ZM204 12H202V14H204V12ZM208 12H210V10H208V12ZM208 24V26H210V24H208ZM204 24H202V26H204V24ZM204 12H206V10H204V12ZM192 12V10H190V12H192ZM192 24H190V26H192V24ZM204 24H206V22H204V24ZM204 28V30H206V28H204ZM192 28V26H190V28H192ZM192 36V38H194V36H192ZM190 36V32H186V36H190ZM190 32V28H186V32H190ZM190 28V24H186V28H190ZM190 24V20H186V24H190ZM190 20V16H186V20H190ZM190 16V12H186V16H190ZM190 12V8H186V12H190ZM188 10H192V6H188V10ZM192 10H196V6H192V10ZM196 10H200V6H196V10ZM200 10H204V6H200V10ZM202 8V12H206V8H202ZM204 14H208V10H204V14ZM206 12V16H210V12H206ZM206 16V20H210V16H206ZM206 20V24H210V20H206ZM208 22H204V26H208V22ZM206 24V20H202V24H206ZM206 20V16H202V20H206ZM206 16V12H202V16H206ZM204 10H200V14H204V10ZM200 10H196V14H200V10ZM196 10H192V14H196V10ZM190 12V16H194V12H190ZM190 16V20H194V16H190ZM190 20V24H194V20H190ZM192 26H196V22H192V26ZM196 26H200V22H196V26ZM200 26H204V22H200V26ZM202 24V28H206V24H202ZM204 26H200V30H204V26ZM200 26H196V30H200V26ZM196 26H192V30H196V26ZM190 28V32H194V28H190ZM190 32V36H194V32H190ZM192 34H188V38H192V34ZM228 24H230V22H228V24ZM228 28V30H230V28H228ZM216 28H214V30H216V28ZM216 24V22H214V24H216ZM228 24H226V26H228V24ZM228 12V10H226V12H228ZM232 12H234V10H232V12ZM232 24V26H234V24H232ZM216 24V26H218V24H216ZM212 24H210V26H212V24ZM212 12V10H210V12H212ZM216 12H218V10H216V12ZM228 12V14H230V12H228ZM216 12H214V14H216V12ZM216 8V6H214V8H216ZM228 8H230V6H228V8ZM224 26H228V22H224V26ZM226 24V28H230V24H226ZM228 26H224V30H228V26ZM224 26H220V30H224V26ZM220 26H216V30H220V26ZM218 28V24H214V28H218ZM216 26H220V22H216V26ZM220 26H224V22H220V26ZM230 24V20H226V24H230ZM230 20V16H226V20H230ZM230 16V12H226V16H230ZM228 14H232V10H228V14ZM230 12V16H234V12H230ZM230 16V20H234V16H230ZM230 20V24H234V20H230ZM232 22H228V26H232V22ZM216 22H212V26H216V22ZM214 24V20H210V24H214ZM214 20V16H210V20H214ZM214 16V12H210V16H214ZM212 14H216V10H212V14ZM214 12V16H218V12H214ZM214 16V20H218V16H214ZM214 20V24H218V20H214ZM228 10H224V14H228V10ZM224 10H220V14H224V10ZM220 10H216V14H220V10ZM218 12V8H214V12H218ZM216 10H220V6H216V10ZM220 10H224V6H220V10ZM224 10H228V6H224V10ZM226 8V12H230V8H226ZM240 28H238V30H240V28ZM240 12H242V10H240V12ZM236 12H234V14H236V12ZM236 8V6H234V8H236ZM244 8H246V6H244V8ZM244 28V30H246V28H244ZM240 4H238V6H240V4ZM240 0V-2H238V0H240ZM244 0H246V-2H244V0ZM244 4V6H246V4H244ZM242 28V24H238V28H242ZM242 24V20H238V24H242ZM242 20V16H238V20H242ZM242 16V12H238V16H242ZM240 10H236V14H240V10ZM238 12V8H234V12H238ZM236 10H240V6H236V10ZM240 10H244V6H240V10ZM242 8V12H246V8H242ZM242 12V16H246V12H242ZM242 16V20H246V16H242ZM242 20V24H246V20H242ZM242 24V28H246V24H242ZM244 26H240V30H244V26ZM242 4V0H238V4H242ZM240 2H244V-2H240V2ZM242 0V4H246V0H242ZM244 2H240V6H244V2ZM264 24H266V22H264V24ZM264 28V30H266V28H264ZM248 28H246V30H248V28ZM248 24V22H246V24H248ZM264 24H262V26H264V24ZM264 20V18H262V20H264ZM268 20H270V18H268V20ZM268 24V26H270V24H268ZM264 20V22H266V20H264ZM252 20H250V22H252V20ZM252 16V14H250V16H252ZM264 16H266V14H264V16ZM252 16V18H254V16H252ZM248 16H246V18H248V16ZM248 12V10H246V12H248ZM252 12H254V10H252V12ZM268 8H270V6H268V8ZM268 12V14H270V12H268ZM252 12H250V14H252V12ZM252 8V6H250V8H252ZM260 26H264V22H260V26ZM262 24V28H266V24H262ZM264 26H260V30H264V26ZM260 26H256V30H260V26ZM256 26H252V30H256V26ZM252 26H248V30H252V26ZM250 28V24H246V28H250ZM248 26H252V22H248V26ZM252 26H256V22H252V26ZM256 26H260V22H256V26ZM266 24V20H262V24H266ZM264 22H268V18H264V22ZM266 20V24H270V20H266ZM268 22H264V26H268V22ZM264 18H260V22H264V18ZM260 18H256V22H260V18ZM256 18H252V22H256V18ZM254 20V16H250V20H254ZM252 18H256V14H252V18ZM256 18H260V14H256V18ZM260 18H264V14H260V18ZM262 16V20H266V16H262ZM252 14H248V18H252V14ZM250 16V12H246V16H250ZM248 14H252V10H248V14ZM250 12V16H254V12H250ZM264 10H268V6H264V10ZM266 8V12H270V8H266ZM268 10H264V14H268V10ZM264 10H260V14H264V10ZM260 10H256V14H260V10ZM256 10H252V14H256V10ZM254 12V8H250V12H254ZM252 10H256V6H252V10ZM256 10H260V6H256V10ZM260 10H264V6H260V10ZM288 24H290V22H288V24ZM288 28V30H290V28H288ZM272 28H270V30H272V28ZM272 24V22H270V24H272ZM288 24H286V26H288V24ZM288 20V18H286V20H288ZM292 20H294V18H292V20ZM292 24V26H294V24H292ZM288 20V22H290V20H288ZM276 20H274V22H276V20ZM276 16V14H274V16H276ZM288 16H290V14H288V16ZM276 16V18H278V16H276ZM272 16H270V18H272V16ZM272 12V10H270V12H272ZM276 12H278V10H276V12ZM292 8H294V6H292V8ZM292 12V14H294V12H292ZM276 12H274V14H276V12ZM276 8V6H274V8H276ZM284 26H288V22H284V26ZM286 24V28H290V24H286ZM288 26H284V30H288V26ZM284 26H280V30H284V26ZM280 26H276V30H280V26ZM276 26H272V30H276V26ZM274 28V24H270V28H274ZM272 26H276V22H272V26ZM276 26H280V22H276V26ZM280 26H284V22H280V26ZM290 24V20H286V24H290ZM288 22H292V18H288V22ZM290 20V24H294V20H290ZM292 22H288V26H292V22ZM288 18H284V22H288V18ZM284 18H280V22H284V18ZM280 18H276V22H280V18ZM278 20V16H274V20H278ZM276 18H280V14H276V18ZM280 18H284V14H280V18ZM284 18H288V14H284V18ZM286 16V20H290V16H286ZM276 14H272V18H276V14ZM274 16V12H270V16H274ZM272 14H276V10H272V14ZM274 12V16H278V12H274ZM288 10H292V6H288V10ZM290 8V12H294V8H290ZM292 10H288V14H292V10ZM288 10H284V14H288V10ZM284 10H280V14H284V10ZM280 10H276V14H280V10ZM278 12V8H274V12H278ZM276 10H280V6H276V10ZM280 10H284V6H280V10ZM284 10H288V6H284V10ZM312 24H314V22H312V24ZM312 28V30H314V28H312ZM300 28H298V30H300V28ZM300 24V22H298V24H300ZM312 24H310V26H312V24ZM312 12V10H310V12H312ZM316 12H318V10H316V12ZM316 24V26H318V24H316ZM300 24V26H302V24H300ZM296 24H294V26H296V24ZM296 12V10H294V12H296ZM300 12H302V10H300V12ZM312 12V14H314V12H312ZM300 12H298V14H300V12ZM300 8V6H298V8H300ZM312 8H314V6H312V8ZM308 26H312V22H308V26ZM310 24V28H314V24H310ZM312 26H308V30H312V26ZM308 26H304V30H308V26ZM304 26H300V30H304V26ZM302 28V24H298V28H302ZM300 26H304V22H300V26ZM304 26H308V22H304V26ZM314 24V20H310V24H314ZM314 20V16H310V20H314ZM314 16V12H310V16H314ZM312 14H316V10H312V14ZM314 12V16H318V12H314ZM314 16V20H318V16H314ZM314 20V24H318V20H314ZM316 22H312V26H316V22ZM300 22H296V26H300V22ZM298 24V20H294V24H298ZM298 20V16H294V20H298ZM298 16V12H294V16H298ZM296 14H300V10H296V14ZM298 12V16H302V12H298ZM298 16V20H302V16H298ZM298 20V24H302V20H298ZM312 10H308V14H312V10ZM308 10H304V14H308V10ZM304 10H300V14H304V10ZM302 12V8H298V12H302ZM300 10H304V6H300V10ZM304 10H308V6H304V10ZM308 10H312V6H308V10ZM310 8V12H314V8H310ZM336 28H334V30H336V28ZM336 12V10H334V12H336ZM340 12H342V10H340V12ZM340 28V30H342V28H340ZM320 28H318V30H320V28ZM320 8V6H318V8H320ZM324 8H326V6H324V8ZM324 12H322V14H324V12ZM328 12H330V10H328V12ZM328 16V18H330V16H328ZM324 16V14H322V16H324ZM324 28V30H326V28H324ZM336 12V14H338V12H336ZM328 12H326V14H328V12ZM328 8V6H326V8H328ZM336 8H338V6H336V8ZM338 28V24H334V28H338ZM338 24V20H334V24H338ZM338 20V16H334V20H338ZM338 16V12H334V16H338ZM336 14H340V10H336V14ZM338 12V16H342V12H338ZM338 16V20H342V16H338ZM338 20V24H342V20H338ZM338 24V28H342V24H338ZM340 26H336V30H340V26ZM322 28V24H318V28H322ZM322 24V20H318V24H322ZM322 20V16H318V20H322ZM322 16V12H318V16H322ZM322 12V8H318V12H322ZM320 10H324V6H320V10ZM322 8V12H326V8H322ZM324 14H328V10H324V14ZM326 12V16H330V12H326ZM328 14H324V18H328V14ZM322 16V20H326V16H322ZM322 20V24H326V20H322ZM322 24V28H326V24H322ZM324 26H320V30H324V26ZM336 10H332V14H336V10ZM332 10H328V14H332V10ZM330 12V8H326V12H330ZM328 10H332V6H328V10ZM332 10H336V6H332V10ZM334 8V12H338V8H334Z" fill="black" fill-opacity="0.3" mask="url(#path-1-outside-1_2_77)"/>
</svg>
