<svg width="12" height="16" viewBox="0 0 12 16" fill="none" xmlns="http://www.w3.org/2000/svg">
<path d="M7.125 0.125H4.875C3.68193 0.126303 2.53809 0.600827 1.69446 1.44446C0.850827 2.28809 0.376303 3.43193 0.375 4.625V11.375C0.376303 12.5681 0.850827 13.7119 1.69446 14.5555C2.53809 15.3992 3.68193 15.8737 4.875 15.875H7.125C8.31807 15.8737 9.46191 15.3992 10.3055 14.5555C11.1492 13.7119 11.6237 12.5681 11.625 11.375V4.625C11.6237 3.43193 11.1492 2.28809 10.3055 1.44446C9.46191 0.600827 8.31807 0.126303 7.125 0.125ZM4.875 1.25H6V6.3125H1.5V4.625C1.50093 3.73018 1.85681 2.87228 2.48954 2.23954C3.12228 1.60681 3.98018 1.25093 4.875 1.25ZM7.125 14.75H4.875C3.98018 14.7491 3.12228 14.3932 2.48954 13.7605C1.85681 13.1277 1.50093 12.2698 1.5 11.375V7.4375H10.5V11.375C10.4991 12.2698 10.1432 13.1277 9.51046 13.7605C8.87772 14.3932 8.01982 14.7491 7.125 14.75Z" fill="white"/>
</svg>
