<svg width="12" height="16" viewBox="0 0 12 16" fill="none" xmlns="http://www.w3.org/2000/svg">
<path d="M7.125 0.125H4.875C3.68193 0.126303 2.53809 0.600827 1.69446 1.44446C0.850827 2.28809 0.376303 3.43193 0.375 4.625V11.375C0.376303 12.5681 0.850827 13.7119 1.69446 14.5555C2.53809 15.3992 3.68193 15.8737 4.875 15.875H7.125C8.31807 15.8737 9.46191 15.3992 10.3055 14.5555C11.1492 13.7119 11.6237 12.5681 11.625 11.375V4.625C11.6237 3.43193 11.1492 2.28809 10.3055 1.44446C9.46191 0.600827 8.31807 0.126303 7.125 0.125ZM7.28953 10.4145C7.39508 10.309 7.53823 10.2497 7.6875 10.2497C7.83677 10.2497 7.97992 10.309 8.08547 10.4145C8.19102 10.5201 8.25031 10.6632 8.25031 10.8125C8.25031 10.9618 8.19102 11.1049 8.08547 11.2105L6.39797 12.898C6.34573 12.9503 6.28369 12.9918 6.2154 13.0201C6.14712 13.0484 6.07392 13.0629 6 13.0629C5.92608 13.0629 5.85288 13.0484 5.7846 13.0201C5.71631 12.9918 5.65427 12.9503 5.60203 12.898L3.91453 11.2105C3.80898 11.1049 3.74969 10.9618 3.74969 10.8125C3.74969 10.6632 3.80898 10.5201 3.91453 10.4145C4.02008 10.309 4.16323 10.2497 4.3125 10.2497C4.46177 10.2497 4.60492 10.309 4.71047 10.4145L5.4375 11.1423V4.85773L4.71047 5.58547C4.60492 5.69102 4.46177 5.75031 4.3125 5.75031C4.16323 5.75031 4.02008 5.69102 3.91453 5.58547C3.80898 5.47992 3.74969 5.33677 3.74969 5.1875C3.74969 5.03823 3.80898 4.89508 3.91453 4.78953L5.60203 3.10203C5.65427 3.04973 5.71631 3.00824 5.7846 2.97994C5.85288 2.95163 5.92608 2.93706 6 2.93706C6.07392 2.93706 6.14712 2.95163 6.2154 2.97994C6.28369 3.00824 6.34573 3.04973 6.39797 3.10203L8.08547 4.78953C8.13773 4.84179 8.17919 4.90384 8.20747 4.97212C8.23575 5.0404 8.25031 5.11359 8.25031 5.1875C8.25031 5.26141 8.23575 5.3346 8.20747 5.40288C8.17919 5.47116 8.13773 5.53321 8.08547 5.58547C8.03321 5.63773 7.97116 5.67919 7.90288 5.70747C7.8346 5.73576 7.76141 5.75031 7.6875 5.75031C7.61359 5.75031 7.5404 5.73576 7.47212 5.70747C7.40384 5.67919 7.34179 5.63773 7.28953 5.58547L6.5625 4.85773V11.1423L7.28953 10.4145Z" fill="white"/>
</svg>
