<svg width="22" height="22" viewBox="0 0 22 22" fill="none" xmlns="http://www.w3.org/2000/svg">
<path d="M8.25 8.9375C8.25 8.75516 8.32243 8.5803 8.45136 8.45136C8.5803 8.32243 8.75516 8.25 8.9375 8.25H14.4375C14.6198 8.25 14.7947 8.32243 14.9236 8.45136C15.0526 8.5803 15.125 8.75516 15.125 8.9375C15.125 9.11984 15.0526 9.2947 14.9236 9.42364C14.7947 9.55257 14.6198 9.625 14.4375 9.625H8.9375C8.75516 9.625 8.5803 9.55257 8.45136 9.42364C8.32243 9.2947 8.25 9.11984 8.25 8.9375ZM8.9375 12.375H14.4375C14.6198 12.375 14.7947 12.3026 14.9236 12.1736C15.0526 12.0447 15.125 11.8698 15.125 11.6875C15.125 11.5052 15.0526 11.3303 14.9236 11.2014C14.7947 11.0724 14.6198 11 14.4375 11H8.9375C8.75516 11 8.5803 11.0724 8.45136 11.2014C8.32243 11.3303 8.25 11.5052 8.25 11.6875C8.25 11.8698 8.32243 12.0447 8.45136 12.1736C8.5803 12.3026 8.75516 12.375 8.9375 12.375ZM19.9375 16.5C19.9375 17.2293 19.6478 17.9288 19.132 18.4445C18.6163 18.9603 17.9168 19.25 17.1875 19.25H7.5625C6.83315 19.25 6.13368 18.9603 5.61796 18.4445C5.10223 17.9288 4.8125 17.2293 4.8125 16.5V5.5C4.8125 5.13533 4.66763 4.78559 4.40977 4.52773C4.15191 4.26987 3.80217 4.125 3.4375 4.125C3.07283 4.125 2.72309 4.26987 2.46523 4.52773C2.20737 4.78559 2.0625 5.13533 2.0625 5.5C2.0625 5.99328 2.47758 6.32672 2.48187 6.33016C2.59566 6.41772 2.67917 6.5387 2.7207 6.67614C2.76223 6.81358 2.75969 6.96057 2.71343 7.09649C2.66718 7.23241 2.57953 7.35043 2.46279 7.43401C2.34605 7.51759 2.20607 7.56252 2.0625 7.5625C1.91384 7.56269 1.76922 7.51409 1.65086 7.42414C1.55117 7.35109 0.6875 6.66961 0.6875 5.5C0.6875 4.77065 0.977231 4.07118 1.49296 3.55546C2.00868 3.03973 2.70815 2.75 3.4375 2.75H15.125C15.8543 2.75 16.5538 3.03973 17.0695 3.55546C17.5853 4.07118 17.875 4.77065 17.875 5.5V14.4375H18.5625C18.7113 14.4375 18.856 14.4857 18.975 14.575C19.0781 14.6489 19.9375 15.3304 19.9375 16.5ZM8.27234 14.9084C8.31932 14.7698 8.40897 14.6495 8.52845 14.565C8.64793 14.4804 8.79111 14.4357 8.9375 14.4375H16.5V5.5C16.5 5.13533 16.3551 4.78559 16.0973 4.52773C15.8394 4.26987 15.4897 4.125 15.125 4.125H5.81711C6.0603 4.54239 6.18813 5.01693 6.1875 5.5V16.5C6.1875 16.8647 6.33237 17.2144 6.59023 17.4723C6.84809 17.7301 7.19783 17.875 7.5625 17.875C7.92717 17.875 8.27691 17.7301 8.53477 17.4723C8.79263 17.2144 8.9375 16.8647 8.9375 16.5C8.9375 16.0067 8.52242 15.6733 8.51813 15.6698C8.40096 15.586 8.31383 15.4668 8.26958 15.3297C8.22533 15.1926 8.2263 15.0449 8.27234 14.9084ZM18.5625 16.5C18.5539 16.2453 18.4556 16.0018 18.2849 15.8125H10.2068C10.2758 16.0351 10.3108 16.2669 10.3108 16.5C10.3115 16.9829 10.1843 17.4573 9.94211 17.875H17.1875C17.5522 17.875 17.9019 17.7301 18.1598 17.4723C18.4176 17.2144 18.5625 16.8647 18.5625 16.5Z" fill="white"/>
</svg>
