<svg width="24" height="24" viewBox="0 0 24 24" fill="none" xmlns="http://www.w3.org/2000/svg">
<path d="M16 9V15C16 16.3261 15.4732 17.5979 14.5355 18.5355C13.5979 19.4732 12.3261 20 11 20C9.67392 20 8.40215 19.4732 7.46447 18.5355C6.52678 17.5979 6 16.3261 6 15V11L9 14" stroke="white" stroke-width="1.8" stroke-linecap="round" stroke-linejoin="round"/>
<path d="M16 5C16.5304 5 17.0391 5.21071 17.4142 5.58579C17.7893 5.96086 18 6.46957 18 7C18 7.53043 17.7893 8.03914 17.4142 8.41421C17.0391 8.78929 16.5304 9 16 9C15.4696 9 14.9609 8.78929 14.5858 8.41421C14.2107 8.03914 14 7.53043 14 7C14 6.46957 14.2107 5.96086 14.5858 5.58579C14.9609 5.21071 15.4696 5 16 5ZM16 5V3" stroke="white" stroke-width="1.8" stroke-linecap="round" stroke-linejoin="round"/>
</svg>
